<svg width="1060" height="1024" viewBox="0 0 1060 1024" fill="none" xmlns="http://www.w3.org/2000/svg">
<path d="M934.917 53.2796C884.157 163.744 893.756 233 963.711 261.048C1068.65 303.119 1318.16 319.947 1422.45 411.211C1526.75 502.472 1844.75 431.92 1899.13 275.286C1953.52 118.652 2051.44 -122.772 1535.09 -122.772C1190.85 -122.772 990.8 -64.0896 934.919 53.2796H934.917Z" fill="#FFFA72"/>
<path d="M89.6462 271.384C-52.4844 580.685 -25.606 774.602 170.267 853.135C464.084 970.935 1162.72 1018.05 1454.75 1273.59C1746.77 1529.12 2637.17 1331.58 2789.45 893.003C2941.73 454.427 3215.91 -221.561 1770.13 -221.561C806.268 -221.561 246.118 -57.2496 89.651 271.384H89.6462Z" fill="#C7E1F3"/>
<path d="M160.085 253.209C25.569 545.94 51.0075 729.469 236.387 803.794C514.464 915.283 1175.67 959.878 1452.06 1201.73C1728.43 1443.57 2571.14 1256.61 2715.26 841.526C2859.38 426.446 3118.88 -213.329 1750.55 -213.329C838.317 -213.329 308.174 -57.8196 160.09 253.209H160.085Z" fill="#B8CFE6"/>
<path d="M230.525 235.033C103.622 511.195 127.621 684.335 302.508 754.454C564.844 859.632 1188.63 901.702 1449.37 1129.86C1710.1 1358.02 2505.1 1181.64 2641.07 790.05C2777.03 398.465 3021.84 -205.096 1730.96 -205.096C870.366 -205.096 370.231 -58.3895 230.529 235.033H230.525Z" fill="#A9BEDA"/>
<path d="M300.964 216.858C181.676 476.45 204.234 639.202 368.628 705.113C615.224 803.981 1201.58 843.527 1446.67 1058C1691.76 1272.46 2439.07 1106.66 2566.87 738.574C2694.68 370.483 2924.8 -196.864 1711.37 -196.864C902.415 -196.864 432.288 -58.9596 300.968 216.858H300.964Z" fill="#9AADCE"/>
<path d="M371.403 198.683C259.729 441.705 280.848 594.068 434.748 655.773C665.604 748.329 1214.53 785.351 1443.98 986.131C1673.43 1186.91 2373.03 1031.69 2492.68 687.097C2612.33 342.502 2827.76 -188.632 1691.79 -188.632C934.463 -188.632 494.345 -59.5296 371.407 198.683H371.403Z" fill="#8B9BC1"/>
<path d="M441.843 180.507C337.783 406.96 357.462 548.935 500.868 606.432C715.984 692.678 1227.49 727.176 1441.29 914.266C1655.09 1101.35 2307 956.721 2418.49 635.621C2529.98 314.521 2730.72 -180.399 1672.2 -180.399C966.512 -180.399 556.402 -60.0995 441.846 180.507H441.843Z" fill="#7D8AB5"/>
<path d="M512.282 162.332C415.836 372.215 434.075 503.801 566.989 557.091C766.364 637.027 1240.44 669 1438.6 842.401C1636.76 1015.8 2240.96 881.75 2344.29 584.145C2447.63 286.54 2633.68 -172.167 1652.61 -172.167C998.561 -172.167 618.459 -60.6696 512.285 162.332H512.282Z" fill="#6E79A9"/>
<path d="M582.721 144.156C493.889 337.47 510.689 458.668 633.109 507.751C816.745 581.375 1253.39 610.825 1435.91 770.536C1618.42 930.244 2174.93 806.778 2270.1 532.668C2365.28 258.558 2536.64 -163.935 1633.03 -163.935C1030.61 -163.935 680.516 -61.2396 582.724 144.156H582.721Z" fill="#5F679C"/>
<path d="M653.16 125.981C571.943 302.725 587.302 413.534 699.229 458.41C867.125 525.724 1266.35 552.649 1433.22 698.671C1600.09 844.69 2108.89 731.807 2195.91 481.192C2282.93 230.577 2439.6 -155.702 1613.44 -155.702C1062.66 -155.702 742.573 -61.8096 653.163 125.981H653.16Z" fill="#505690"/>
<path d="M723.6 107.806C649.996 267.98 663.916 368.401 765.35 409.07C917.505 470.073 1279.3 494.474 1430.53 626.806C1581.75 759.135 2042.85 656.835 2121.71 429.715C2200.57 202.596 2342.56 -147.47 1593.85 -147.47C1094.71 -147.47 804.63 -62.3796 723.602 107.806H723.6Z" fill="#414584"/>
<path d="M794.039 89.6303C728.05 233.234 740.529 323.267 831.47 359.729C967.885 414.422 1292.25 436.298 1427.84 554.941C1563.42 673.581 1976.82 581.863 2047.52 378.239C2118.22 174.615 2245.52 -139.237 1574.26 -139.237C1126.76 -139.237 866.686 -62.9496 794.041 89.6303H794.039Z" fill="#323377"/>
<path d="M864.478 71.4549C806.103 198.489 817.142 278.134 897.59 310.388C1018.27 358.77 1305.2 378.123 1425.14 483.076C1545.08 588.027 1910.78 506.892 1973.33 326.763C2035.87 146.633 2148.48 -131.005 1554.68 -131.005C1158.81 -131.005 928.743 -63.5196 864.48 71.4549H864.478Z" fill="#23226B"/>
</svg>
